HIERARCHY
ROOT Hips
{
	OFFSET	0.00	0.00	0.00
	CHANNELS 6 Xposition Yposition Zposition Zrotation Xrotation Yrotation
	JOINT LeftUpLeg
	{
		OFFSET	 0.126116	-0.014019	-0.065224
		CHANNELS 3 Zrotation Xrotation Yrotation
		JOINT LeftLeg
		{
			OFFSET	 0.000000	 0.000000	 0.569914
			CHANNELS 3 Zrotation Xrotation Yrotation
			JOINT LeftFoot
			{
				OFFSET	 0.000000	 0.000000	 0.544423
				CHANNELS 3 Zrotation Xrotation Yrotation
				JOINT LeftToeBase
				{
					OFFSET	 0.000000	 0.000000	 0.207117
					CHANNELS 3 Zrotation Xrotation Yrotation
					End Site
					{
						OFFSET	 0.000000	 0.000000	 0.207117
					}
				}
			}
		}
	}
	JOINT RightUpLeg
	{
		OFFSET	-0.124023	-0.008373	-0.065224
		CHANNELS 3 Zrotation Xrotation Yrotation
		JOINT RightLeg
		{
			OFFSET	 0.000000	 0.000000	 0.570047
			CHANNELS 3 Zrotation Xrotation Yrotation
			JOINT RightFoot
			{
				OFFSET	 0.000000	 0.000000	 0.544354
				CHANNELS 3 Zrotation Xrotation Yrotation
				JOINT RightToeBase
				{
					OFFSET	 0.000000	 0.000000	 0.207540
					CHANNELS 3 Zrotation Xrotation Yrotation
					End Site
					{
						OFFSET	 0.000000	 0.000000	 0.207540
					}
				}
			}
		}
	}
	JOINT Spine
	{
		OFFSET	 0.000184	-0.007763	 0.117403
		CHANNELS 3 Zrotation Xrotation Yrotation
		JOINT Spine1
		{
			OFFSET	 0.000000	 0.000000	 0.137269
			CHANNELS 3 Zrotation Xrotation Yrotation
			JOINT Spine2
			{
				OFFSET	 0.000000	 0.000000	 0.156879
				CHANNELS 3 Zrotation Xrotation Yrotation
				JOINT LeftShoulder
				{
					OFFSET	 0.080501	-0.002496	 0.160144
					CHANNELS 3 Zrotation Xrotation Yrotation
					JOINT LeftArm
					{
						OFFSET	 0.000000	 0.000000	 0.164363
						CHANNELS 3 Zrotation Xrotation Yrotation
						JOINT LeftForeArm
						{
							OFFSET	 0.000000	 0.000000	 0.364576
							CHANNELS 3 Zrotation Xrotation Yrotation
							JOINT LeftHand
							{
								OFFSET	 0.000000	 0.000000	 0.360812
								CHANNELS 3 Zrotation Xrotation Yrotation
								JOINT LeftHandIndex1
								{
									OFFSET	 0.000000	 0.000000	 0.086006
									CHANNELS 3 Zrotation Xrotation Yrotation
									JOINT LeftHandIndex2
									{
										OFFSET	 0.000000	 0.000000	 0.047236
										CHANNELS 3 Zrotation Xrotation Yrotation
										JOINT LeftHandIndex3
										{
											OFFSET	-0.004284	-0.000551	 0.038166
											CHANNELS 3 Zrotation Xrotation Yrotation
											End Site
											{
												OFFSET	-0.004284	-0.000551	 0.038166
											}
										}
									}
								}
							}
						}
					}
				}
				JOINT Neck
				{
					OFFSET	 0.000000	 0.000000	 0.176489
					CHANNELS 3 Zrotation Xrotation Yrotation
					JOINT Head
					{
						OFFSET	 0.000000	-0.001747	 0.077940
						CHANNELS 3 Zrotation Xrotation Yrotation
						End Site
						{
							OFFSET	 0.000000	-0.001747	 0.077940
						}
					}
				}
				JOINT RightShoulder
				{
					OFFSET	-0.080363	 0.000306	 0.159706
					CHANNELS 3 Zrotation Xrotation Yrotation
					JOINT RightArm
					{
						OFFSET	 0.000000	 0.000000	 0.164196
						CHANNELS 3 Zrotation Xrotation Yrotation
						JOINT RightForeArm
						{
							OFFSET	 0.000000	 0.000000	 0.365611
							CHANNELS 3 Zrotation Xrotation Yrotation
							JOINT RightHand
							{
								OFFSET	 0.000000	 0.000000	 0.360648
								CHANNELS 3 Zrotation Xrotation Yrotation
								JOINT RightHandIndex1
								{
									OFFSET	 0.000000	 0.000000	 0.069977
									CHANNELS 3 Zrotation Xrotation Yrotation
									JOINT RightHandIndex2
									{
										OFFSET	 0.000000	 0.000000	 0.052305
										CHANNELS 3 Zrotation Xrotation Yrotation
										JOINT RightHandIndex3
										{
											OFFSET	 0.009002	-0.000782	 0.042196
											CHANNELS 3 Zrotation Xrotation Yrotation
											End Site
											{
												OFFSET	 0.009002	-0.000782	 0.042196
											}
										}
									}
								}
							}
						}
					}
				}
			}
		}
	}
}
MOTION
Frames:    9
Frame Time: 0.03333334
-0.043557	 0.237684	 1.022282	 3.223735	 34.374490	-8.260802	 29.244440	-85.110680	-151.222600	 7.914824	-74.171550	 8.019652	 1.353517	 78.992230	-0.489374	-2.385833	 28.452760	 0.000004	 85.686990	-78.840070	-98.342110	-20.347660	-77.615600	-14.863490	 32.198970	 77.511860	-20.670500	 2.384659	 28.388700	-0.000001	-9.966391	 15.234120	 0.399293	-1.879512	 22.768290	 0.961745	-5.289144	-2.857090	 4.166298	-99.226350	 68.209770	 156.583300	 8.301106	-5.354416	-54.701310	-21.758160	 3.115450	-12.364110	-29.426620	-28.840900	-20.437880	-2.027600	 6.559038	 9.033609	-5.188889	 0.308190	 3.541030	-5.234859	 0.342567	 0.430617	 0.572030	 18.711300	-6.547832	-4.054251	-29.469990	-2.659348	 97.494130	 64.687710	-158.960200	-9.285751	 5.890702	 61.377900	 4.687698	 7.242418	 30.631950	 12.770710	-28.061540	 15.359200	 1.803333	 3.979147	-15.098590	 4.898592	 3.004813	-9.310344	 5.224449	 0.395017	 2.014677
-0.042227	 0.236435	 1.039518	 2.935330	 32.980930	-7.566344	 15.279340	-82.525750	-165.146800	 6.392308	-71.982620	 6.477874	 1.000447	 78.056500	-0.079487	-2.385832	 28.452790	-0.000001	 69.470470	-78.700910	-114.397900	-18.452410	-75.313760	-12.886150	 29.805270	 76.727200	-18.042620	 2.384659	 28.388700	-0.000001	-8.668944	 15.291670	 0.132561	-1.396031	 23.565310	 0.318264	-5.735495	-4.229700	 3.814620	-98.771540	 68.480110	 157.578400	 8.160554	-2.810289	-56.019740	-21.391470	 3.136259	-12.413380	-31.133550	-34.257560	-21.776040	-2.027600	 6.559038	 9.033609	-5.188889	 0.308190	 3.541030	-5.234859	 0.342567	 0.430617	-0.231039	 13.562250	-4.668931	-4.975667	-24.226110	-3.452322	 97.210850	 64.366910	-159.987900	-10.083500	 5.872012	 61.238110	 5.279893	 7.907926	 32.228760	 13.530510	-33.235970	 17.409540	 1.803333	 3.979147	-15.098590	 4.898592	 3.004813	-9.310344	 5.224449	 0.395017	 2.014677
-0.039536	 0.235584	 1.063921	 2.626522	 30.945940	-6.673108	 6.790069	-78.472260	-173.441800	 5.188073	-68.730210	 5.225038	 0.413622	 76.596550	 0.349711	-2.385833	 28.452760	 0.000004	 48.993390	-76.993110	-134.528400	-16.670590	-71.926900	-10.969860	 26.923000	 75.585210	-14.907020	 2.384659	 28.388700	-0.000001	-7.107062	 15.384470	-0.146298	-0.767737	 24.296380	-0.460188	-6.366005	-6.059375	 3.265510	-97.627980	 69.969250	 158.931500	 8.937188	 1.809524	-58.067540	-20.730540	 3.141532	-12.436840	-34.340520	-41.382160	-24.711480	-2.027600	 6.559038	 9.033609	-5.188889	 0.308190	 3.541030	-5.234859	 0.342567	 0.430617	-0.905076	 5.415289	-2.869279	-5.759545	-16.081870	-3.871032	 96.718440	 64.286600	-161.333700	-11.654680	 6.622819	 60.495400	 5.083521	 8.655649	 35.115840	 14.252960	-39.406310	 19.562870	 1.803333	 3.979147	-15.098590	 4.898592	 3.004813	-9.310344	 5.224449	 0.395017	 2.014677
-0.036248	 0.235498	 1.086894	 2.283979	 28.929880	-5.724423	 2.940727	-74.439610	-177.235700	 4.716595	-65.578130	 4.675993	-0.027642	 75.312590	 0.500662	-2.385833	 28.452760	 0.000004	 34.707970	-74.190620	-148.540100	-15.760020	-68.528100	-9.892198	 24.858220	 74.524890	-12.480390	 2.384659	 28.388700	-0.000001	-5.758187	 15.556600	-0.414746	-0.217617	 24.755750	-1.151842	-6.854311	-7.721376	 2.820922	-95.740620	 72.993090	 159.997800	 10.350770	 7.307653	-60.728840	-20.002720	 3.126741	-12.421010	-38.262530	-47.496360	-28.082540	-2.027600	 6.559038	 9.033609	-5.188889	 0.308190	 3.541030	-5.234859	 0.342567	 0.430617	-1.258260	-2.462639	-2.205728	-6.122407	-8.338768	-3.433740	 95.766840	 65.956500	-162.422600	-13.249900	 9.550927	 60.490760	 4.194074	 8.980289	 37.731960	 15.457420	-45.418540	 21.204010	 1.803333	 3.979147	-15.098590	 4.898592	 3.004813	-9.310344	 5.224449	 0.395017	 2.014677
-0.031776	 0.233945	 1.112263	 2.105387	 26.671080	-4.653014	 0.287505	-69.837550	-179.767200	 4.653251	-62.043010	 4.480716	-0.196437	 73.880940	 0.258342	-2.385833	 28.452750	 0.000004	 24.177090	-70.221820	-158.778000	-13.568990	-64.818090	-7.632156	 22.870010	 73.514970	-10.666860	 2.384659	 28.388700	-0.000001	-4.320422	 15.625060	-0.803498	 0.344222	 25.054660	-1.959487	-7.308062	-9.451532	 2.465066	-93.307990	 76.559920	 160.931700	 12.596290	 12.793830	-63.982900	-19.108090	 3.087495	-12.360140	-42.647000	-53.319500	-32.173710	-2.027600	 6.559038	 9.033609	-5.188889	 0.308190	 3.541030	-5.234859	 0.342567	 0.430617	-1.595842	-11.360820	-2.514753	-6.416471	 0.216254	-2.244288	 94.558600	 68.333110	-163.627700	-15.358960	 13.032220	 60.797660	 3.105582	 9.335860	 41.128340	 16.820870	-51.677320	 22.527240	 1.803333	 3.979147	-15.098590	 4.898592	 3.004813	-9.310344	 5.224449	 0.395017	 2.014677
-0.025004	 0.227832	 1.146111	 2.625095	 24.367360	-3.605056	-1.476078	-64.101320	 178.942400	 4.489180	-56.916260	 4.113369	 0.723116	 71.829540	-1.004712	-2.385833	 28.452750	 0.000004	 16.108620	-64.646260	-166.119400	-10.561580	-59.662410	-4.677299	 21.036910	 71.864590	-9.372417	 2.384659	 28.388700	-0.000001	-2.376830	 14.471430	-1.578785	 0.720763	 24.914680	-2.778879	-7.716800	-11.545020	 1.621774	-93.950150	 75.134150	 163.386600	 14.404270	 14.741820	-58.254600	-16.734950	 8.760816	-23.151520	-46.118240	-58.402470	-37.124840	-2.027600	 6.559038	 9.033609	-5.188889	 0.308190	 3.541030	-5.234859	 0.342567	 0.430617	-1.675476	-14.704230	-1.000883	-6.822533	 3.755815	-2.675056	 93.769500	 69.472950	-165.031100	-18.041050	 16.577020	 58.286520	 1.457221	 9.832594	 46.850650	 17.196320	-57.575520	 23.093250	 1.803333	 3.979147	-15.098590	 4.898592	 3.004813	-9.310344	 5.224449	 0.395017	 2.014677
-0.021246	 0.219747	 1.176798	 2.897469	 22.696470	-2.951477	-2.649211	-58.929040	 178.170300	 4.205460	-51.798120	 3.635155	 0.064635	 69.655590	-0.743390	-2.385833	 28.452750	 0.000004	 11.345890	-59.585090	-170.232100	-8.425475	-54.453360	-2.669079	 17.732080	 69.905010	-6.820162	 2.384659	 28.388700	-0.000001	-0.641492	 12.769640	-1.505131	 1.460812	 24.501020	-3.346752	-8.159699	-13.206430	 0.960230	-94.483370	 73.495060	 165.173900	 16.432350	 15.498240	-54.556270	-14.375880	 11.627460	-29.880540	-45.513560	-61.611360	-37.786540	-2.027600	 6.559038	 9.033609	-5.188889	 0.308190	 3.541030	-5.234859	 0.342567	 0.430617	-1.816057	-15.283270	-0.944584	-6.974743	 4.751255	-2.308401	 94.001140	 67.001590	-166.830100	-19.605340	 16.631360	 53.653550	-0.130652	 10.310740	 53.223180	 15.549590	-60.411980	 22.305890	 1.803333	 3.979147	-15.098590	 4.898592	 3.004813	-9.310344	 5.224449	 0.395017	 2.014677
-0.017817	 0.208976	 1.210007	 3.221550	 20.493060	-1.991819	-3.870197	-52.368790	 177.233200	 3.786744	-45.673460	 3.009540	-0.445818	 67.540260	-0.401118	-2.385833	 28.452750	 0.000004	 7.278343	-52.902700	-173.840800	-6.351397	-47.892510	-0.894121	 14.596440	 68.026360	-4.594333	 2.384659	 28.388700	-0.000001	 1.593385	 10.604600	-1.401933	 2.339038	 23.628770	-3.990667	-8.625933	-14.577390	 0.169436	-94.819210	 71.480400	 167.238000	 18.435840	 15.942740	-51.449790	-11.500040	 13.707920	-36.404160	-39.543400	-63.652120	-33.240300	-2.027600	 6.559038	 9.033609	-5.188889	 0.308190	 3.541030	-5.234859	 0.342567	 0.430617	-1.859685	-14.836910	-0.658748	-7.177392	 5.159084	-2.192514	 93.829470	 64.675950	-168.917000	-21.133080	 16.965220	 49.675900	-1.864281	 10.238870	 59.260350	 11.296330	-61.685760	 19.198930	 1.803333	 3.979147	-15.098590	 4.898592	 3.004813	-9.310344	 5.224449	 0.395017	 2.014677
-0.015326	 0.198043	 1.231971	 3.440266	 17.643130	-1.153735	-4.098593	-46.090110	 176.964300	 3.380379	-41.588420	 2.522366	-0.084695	 66.854230	-0.541735	-2.385833	 28.452750	 0.000004	 5.118063	-46.342060	-175.934300	-4.835243	-43.254240	 0.213134	 13.039130	 67.311160	-3.775808	 2.384659	 28.388700	-0.000001	 3.449837	 9.189756	-1.413781	 2.617280	 22.598060	-4.120237	-8.868680	-14.791990	-0.237308	-94.695940	 70.579000	 168.812600	 19.643640	 16.433210	-50.160210	-9.380822	 14.351010	-40.095800	-32.616640	-63.147570	-28.054250	-2.027600	 6.559038	 9.033609	-5.188889	 0.308190	 3.541030	-5.234859	 0.342567	 0.430617	-1.893565	-13.720560	-0.751684	-7.336253	 4.961350	-2.060821	 93.476460	 63.912270	-170.259000	-22.587920	 18.429030	 49.115350	-2.853806	 9.523510	 61.194640	 6.950829	-60.674940	 16.251400	 1.803333	 3.979147	-15.098590	 4.898592	 3.004813	-9.310344	 5.224449	 0.395017	 2.014677
